G04 #@! TF.GenerationSoftware,KiCad,Pcbnew,5.0.2+dfsg1-1*
G04 #@! TF.CreationDate,2021-01-04T01:24:12+01:00*
G04 #@! TF.ProjectId,tester,74657374-6572-42e6-9b69-6361645f7063,rev?*
G04 #@! TF.SameCoordinates,Original*
G04 #@! TF.FileFunction,Copper,L2,Bot*
G04 #@! TF.FilePolarity,Positive*
%FSLAX46Y46*%
G04 Gerber Fmt 4.6, Leading zero omitted, Abs format (unit mm)*
G04 Created by KiCad (PCBNEW 5.0.2+dfsg1-1) date Mon 04 Jan 2021 01:24:12 AM CET*
%MOMM*%
%LPD*%
G01*
G04 APERTURE LIST*
G04 #@! TA.AperFunction,Conductor*
%ADD10C,0.100000*%
G04 #@! TD*
G04 #@! TA.AperFunction,ComponentPad*
%ADD11C,1.000000*%
G04 #@! TD*
G04 #@! TA.AperFunction,ComponentPad*
%ADD12C,1.700000*%
G04 #@! TD*
G04 #@! TA.AperFunction,ComponentPad*
%ADD13O,1.700000X1.700000*%
G04 #@! TD*
G04 #@! TA.AperFunction,ComponentPad*
%ADD14R,1.700000X1.700000*%
G04 #@! TD*
G04 #@! TA.AperFunction,ViaPad*
%ADD15C,0.800000*%
G04 #@! TD*
G04 #@! TA.AperFunction,Conductor*
%ADD16C,0.400000*%
G04 #@! TD*
G04 #@! TA.AperFunction,Conductor*
%ADD17C,0.250000*%
G04 #@! TD*
G04 #@! TA.AperFunction,Conductor*
%ADD18C,0.254000*%
G04 #@! TD*
G04 APERTURE END LIST*
D10*
G04 #@! TO.N,N/C*
G04 #@! TO.C,J1*
G36*
X14954009Y-3822407D02*
X15002545Y-3829606D01*
X15050142Y-3841529D01*
X15096342Y-3858059D01*
X15140698Y-3879038D01*
X15182785Y-3904264D01*
X15222197Y-3933494D01*
X15258553Y-3966446D01*
X15291505Y-4002802D01*
X15320735Y-4042214D01*
X15345961Y-4084301D01*
X15366940Y-4128657D01*
X15383470Y-4174857D01*
X15395393Y-4222454D01*
X15402592Y-4270990D01*
X15405000Y-4319999D01*
X15405000Y-4320001D01*
X15402592Y-4369010D01*
X15395393Y-4417546D01*
X15383470Y-4465143D01*
X15366940Y-4511343D01*
X15345961Y-4555699D01*
X15320735Y-4597786D01*
X15291505Y-4637198D01*
X15258553Y-4673554D01*
X15222197Y-4706506D01*
X15182785Y-4735736D01*
X15140698Y-4760962D01*
X15096342Y-4781941D01*
X15050142Y-4798471D01*
X15002545Y-4810394D01*
X14954009Y-4817593D01*
X14905000Y-4820001D01*
X14305000Y-4820001D01*
X14255991Y-4817593D01*
X14207455Y-4810394D01*
X14159858Y-4798471D01*
X14113658Y-4781941D01*
X14069302Y-4760962D01*
X14027215Y-4735736D01*
X13987803Y-4706506D01*
X13951447Y-4673554D01*
X13918495Y-4637198D01*
X13889265Y-4597786D01*
X13864039Y-4555699D01*
X13843060Y-4511343D01*
X13826530Y-4465143D01*
X13814607Y-4417546D01*
X13807408Y-4369010D01*
X13805000Y-4320001D01*
X13805000Y-4319999D01*
X13807408Y-4270990D01*
X13814607Y-4222454D01*
X13826530Y-4174857D01*
X13843060Y-4128657D01*
X13864039Y-4084301D01*
X13889265Y-4042214D01*
X13918495Y-4002802D01*
X13951447Y-3966446D01*
X13987803Y-3933494D01*
X14027215Y-3904264D01*
X14069302Y-3879038D01*
X14113658Y-3858059D01*
X14159858Y-3841529D01*
X14207455Y-3829606D01*
X14255991Y-3822407D01*
X14305000Y-3819999D01*
X14905000Y-3819999D01*
X14954009Y-3822407D01*
X14954009Y-3822407D01*
G37*
D11*
G04 #@! TD*
G04 #@! TO.P,J1,1*
G04 #@! TO.N,N/C*
X14605000Y-4320000D03*
D10*
G04 #@! TO.N,N/C*
G04 #@! TO.C,J1*
G36*
X14954009Y4817593D02*
X15002545Y4810394D01*
X15050142Y4798471D01*
X15096342Y4781941D01*
X15140698Y4760962D01*
X15182785Y4735736D01*
X15222197Y4706506D01*
X15258553Y4673554D01*
X15291505Y4637198D01*
X15320735Y4597786D01*
X15345961Y4555699D01*
X15366940Y4511343D01*
X15383470Y4465143D01*
X15395393Y4417546D01*
X15402592Y4369010D01*
X15405000Y4320001D01*
X15405000Y4319999D01*
X15402592Y4270990D01*
X15395393Y4222454D01*
X15383470Y4174857D01*
X15366940Y4128657D01*
X15345961Y4084301D01*
X15320735Y4042214D01*
X15291505Y4002802D01*
X15258553Y3966446D01*
X15222197Y3933494D01*
X15182785Y3904264D01*
X15140698Y3879038D01*
X15096342Y3858059D01*
X15050142Y3841529D01*
X15002545Y3829606D01*
X14954009Y3822407D01*
X14905000Y3819999D01*
X14305000Y3819999D01*
X14255991Y3822407D01*
X14207455Y3829606D01*
X14159858Y3841529D01*
X14113658Y3858059D01*
X14069302Y3879038D01*
X14027215Y3904264D01*
X13987803Y3933494D01*
X13951447Y3966446D01*
X13918495Y4002802D01*
X13889265Y4042214D01*
X13864039Y4084301D01*
X13843060Y4128657D01*
X13826530Y4174857D01*
X13814607Y4222454D01*
X13807408Y4270990D01*
X13805000Y4319999D01*
X13805000Y4320001D01*
X13807408Y4369010D01*
X13814607Y4417546D01*
X13826530Y4465143D01*
X13843060Y4511343D01*
X13864039Y4555699D01*
X13889265Y4597786D01*
X13918495Y4637198D01*
X13951447Y4673554D01*
X13987803Y4706506D01*
X14027215Y4735736D01*
X14069302Y4760962D01*
X14113658Y4781941D01*
X14159858Y4798471D01*
X14207455Y4810394D01*
X14255991Y4817593D01*
X14305000Y4820001D01*
X14905000Y4820001D01*
X14954009Y4817593D01*
X14954009Y4817593D01*
G37*
D11*
G04 #@! TD*
G04 #@! TO.P,J1,1*
G04 #@! TO.N,N/C*
X14605000Y4320000D03*
D10*
G04 #@! TO.N,N/C*
G04 #@! TO.C,J1*
G36*
X11154009Y4817593D02*
X11202545Y4810394D01*
X11250142Y4798471D01*
X11296342Y4781941D01*
X11340698Y4760962D01*
X11382785Y4735736D01*
X11422197Y4706506D01*
X11458553Y4673554D01*
X11491505Y4637198D01*
X11520735Y4597786D01*
X11545961Y4555699D01*
X11566940Y4511343D01*
X11583470Y4465143D01*
X11595393Y4417546D01*
X11602592Y4369010D01*
X11605000Y4320001D01*
X11605000Y4319999D01*
X11602592Y4270990D01*
X11595393Y4222454D01*
X11583470Y4174857D01*
X11566940Y4128657D01*
X11545961Y4084301D01*
X11520735Y4042214D01*
X11491505Y4002802D01*
X11458553Y3966446D01*
X11422197Y3933494D01*
X11382785Y3904264D01*
X11340698Y3879038D01*
X11296342Y3858059D01*
X11250142Y3841529D01*
X11202545Y3829606D01*
X11154009Y3822407D01*
X11105000Y3819999D01*
X10505000Y3819999D01*
X10455991Y3822407D01*
X10407455Y3829606D01*
X10359858Y3841529D01*
X10313658Y3858059D01*
X10269302Y3879038D01*
X10227215Y3904264D01*
X10187803Y3933494D01*
X10151447Y3966446D01*
X10118495Y4002802D01*
X10089265Y4042214D01*
X10064039Y4084301D01*
X10043060Y4128657D01*
X10026530Y4174857D01*
X10014607Y4222454D01*
X10007408Y4270990D01*
X10005000Y4319999D01*
X10005000Y4320001D01*
X10007408Y4369010D01*
X10014607Y4417546D01*
X10026530Y4465143D01*
X10043060Y4511343D01*
X10064039Y4555699D01*
X10089265Y4597786D01*
X10118495Y4637198D01*
X10151447Y4673554D01*
X10187803Y4706506D01*
X10227215Y4735736D01*
X10269302Y4760962D01*
X10313658Y4781941D01*
X10359858Y4798471D01*
X10407455Y4810394D01*
X10455991Y4817593D01*
X10505000Y4820001D01*
X11105000Y4820001D01*
X11154009Y4817593D01*
X11154009Y4817593D01*
G37*
D11*
G04 #@! TD*
G04 #@! TO.P,J1,1*
G04 #@! TO.N,N/C*
X10805000Y4320000D03*
D10*
G04 #@! TO.N,N/C*
G04 #@! TO.C,J1*
G36*
X11154009Y-3822407D02*
X11202545Y-3829606D01*
X11250142Y-3841529D01*
X11296342Y-3858059D01*
X11340698Y-3879038D01*
X11382785Y-3904264D01*
X11422197Y-3933494D01*
X11458553Y-3966446D01*
X11491505Y-4002802D01*
X11520735Y-4042214D01*
X11545961Y-4084301D01*
X11566940Y-4128657D01*
X11583470Y-4174857D01*
X11595393Y-4222454D01*
X11602592Y-4270990D01*
X11605000Y-4319999D01*
X11605000Y-4320001D01*
X11602592Y-4369010D01*
X11595393Y-4417546D01*
X11583470Y-4465143D01*
X11566940Y-4511343D01*
X11545961Y-4555699D01*
X11520735Y-4597786D01*
X11491505Y-4637198D01*
X11458553Y-4673554D01*
X11422197Y-4706506D01*
X11382785Y-4735736D01*
X11340698Y-4760962D01*
X11296342Y-4781941D01*
X11250142Y-4798471D01*
X11202545Y-4810394D01*
X11154009Y-4817593D01*
X11105000Y-4820001D01*
X10505000Y-4820001D01*
X10455991Y-4817593D01*
X10407455Y-4810394D01*
X10359858Y-4798471D01*
X10313658Y-4781941D01*
X10269302Y-4760962D01*
X10227215Y-4735736D01*
X10187803Y-4706506D01*
X10151447Y-4673554D01*
X10118495Y-4637198D01*
X10089265Y-4597786D01*
X10064039Y-4555699D01*
X10043060Y-4511343D01*
X10026530Y-4465143D01*
X10014607Y-4417546D01*
X10007408Y-4369010D01*
X10005000Y-4320001D01*
X10005000Y-4319999D01*
X10007408Y-4270990D01*
X10014607Y-4222454D01*
X10026530Y-4174857D01*
X10043060Y-4128657D01*
X10064039Y-4084301D01*
X10089265Y-4042214D01*
X10118495Y-4002802D01*
X10151447Y-3966446D01*
X10187803Y-3933494D01*
X10227215Y-3904264D01*
X10269302Y-3879038D01*
X10313658Y-3858059D01*
X10359858Y-3841529D01*
X10407455Y-3829606D01*
X10455991Y-3822407D01*
X10505000Y-3819999D01*
X11105000Y-3819999D01*
X11154009Y-3822407D01*
X11154009Y-3822407D01*
G37*
D11*
G04 #@! TD*
G04 #@! TO.P,J1,1*
G04 #@! TO.N,N/C*
X10805000Y-4320000D03*
D12*
G04 #@! TO.P,J3,1*
G04 #@! TO.N,Net-(J3-Pad1)*
X-15240000Y1270000D03*
D13*
G04 #@! TO.P,J3,2*
G04 #@! TO.N,GND*
X-15240000Y-1270000D03*
G04 #@! TD*
D14*
G04 #@! TO.P,J2,1*
G04 #@! TO.N,VCC*
X-10160000Y3810000D03*
G04 #@! TD*
G04 #@! TO.P,J5,1*
G04 #@! TO.N,3V3*
X-3810000Y3810000D03*
D13*
G04 #@! TO.P,J5,2*
G04 #@! TO.N,Net-(J5-Pad2)*
X-3810000Y1270000D03*
G04 #@! TO.P,J5,3*
G04 #@! TO.N,Net-(J5-Pad3)*
X-3810000Y-1270000D03*
G04 #@! TO.P,J5,4*
G04 #@! TO.N,Net-(J5-Pad4)*
X-3810000Y-3810000D03*
G04 #@! TD*
G04 #@! TO.P,J4,4*
G04 #@! TO.N,Net-(J4-Pad4)*
X3810000Y-3810000D03*
G04 #@! TO.P,J4,3*
G04 #@! TO.N,Net-(J4-Pad3)*
X3810000Y-1270000D03*
G04 #@! TO.P,J4,2*
G04 #@! TO.N,Net-(J3-Pad1)*
X3810000Y1270000D03*
D12*
G04 #@! TO.P,J4,1*
G04 #@! TO.N,GND*
X3810000Y3810000D03*
G04 #@! TD*
D15*
G04 #@! TO.N,VCC*
X5400000Y4900000D03*
X8900000Y1600000D03*
X8900000Y-1500000D03*
G04 #@! TO.N,Net-(J3-Pad1)*
X-635000Y1000000D03*
G04 #@! TD*
D16*
G04 #@! TO.N,VCC*
X5400000Y4900000D02*
X8700000Y1600000D01*
X8700000Y1600000D02*
X8900000Y1600000D01*
X8900000Y1600000D02*
X8900000Y1034315D01*
X8900000Y1034315D02*
X8900000Y-1500000D01*
X5000001Y5299999D02*
X5400000Y4900000D01*
X-10160000Y3810000D02*
X-6790000Y3810000D01*
X-5300001Y5299999D02*
X5000001Y5299999D01*
X-6790000Y3810000D02*
X-5300001Y5299999D01*
D17*
G04 #@! TO.N,Net-(J3-Pad1)*
X-15240000Y1270000D02*
X-5969000Y1270000D01*
X-2413000Y2540000D02*
X-635000Y762000D01*
X-4699000Y2540000D02*
X-2413000Y2540000D01*
X-5969000Y1270000D02*
X-4699000Y2540000D01*
G04 #@! TD*
D18*
G04 #@! TO.N,GND*
G36*
X16598000Y7833486D02*
X16598001Y-7833485D01*
X14833487Y-9598000D01*
X-15833486Y-9598000D01*
X-17598000Y-7833487D01*
X-17598000Y-6666424D01*
X5323000Y-6666424D01*
X5323000Y-7333576D01*
X5578308Y-7949944D01*
X6050056Y-8421692D01*
X6666424Y-8677000D01*
X7333576Y-8677000D01*
X7949944Y-8421692D01*
X8421692Y-7949944D01*
X8677000Y-7333576D01*
X8677000Y-6666424D01*
X8421692Y-6050056D01*
X7949944Y-5578308D01*
X7333576Y-5323000D01*
X6666424Y-5323000D01*
X6050056Y-5578308D01*
X5578308Y-6050056D01*
X5323000Y-6666424D01*
X-17598000Y-6666424D01*
X-17598000Y-3810000D01*
X-5010058Y-3810000D01*
X-4918709Y-4269242D01*
X-4658569Y-4658569D01*
X-4269242Y-4918709D01*
X-3925920Y-4987000D01*
X-3694080Y-4987000D01*
X-3350758Y-4918709D01*
X-2961431Y-4658569D01*
X-2701291Y-4269242D01*
X-2609942Y-3810000D01*
X2609942Y-3810000D01*
X2701291Y-4269242D01*
X2961431Y-4658569D01*
X3350758Y-4918709D01*
X3694080Y-4987000D01*
X3925920Y-4987000D01*
X4269242Y-4918709D01*
X4658569Y-4658569D01*
X4884794Y-4319999D01*
X9671594Y-4319999D01*
X9671594Y-4320001D01*
X9735033Y-4638932D01*
X9915693Y-4909308D01*
X10186069Y-5089968D01*
X10505000Y-5153407D01*
X11105000Y-5153407D01*
X11423931Y-5089968D01*
X11694307Y-4909308D01*
X11874967Y-4638932D01*
X11938406Y-4320001D01*
X11938406Y-4319999D01*
X13471594Y-4319999D01*
X13471594Y-4320001D01*
X13535033Y-4638932D01*
X13715693Y-4909308D01*
X13986069Y-5089968D01*
X14305000Y-5153407D01*
X14905000Y-5153407D01*
X15223931Y-5089968D01*
X15494307Y-4909308D01*
X15674967Y-4638932D01*
X15738406Y-4320001D01*
X15738406Y-4319999D01*
X15674967Y-4001068D01*
X15494307Y-3730692D01*
X15223931Y-3550032D01*
X14905000Y-3486593D01*
X14305000Y-3486593D01*
X13986069Y-3550032D01*
X13715693Y-3730692D01*
X13535033Y-4001068D01*
X13471594Y-4319999D01*
X11938406Y-4319999D01*
X11874967Y-4001068D01*
X11694307Y-3730692D01*
X11423931Y-3550032D01*
X11105000Y-3486593D01*
X10505000Y-3486593D01*
X10186069Y-3550032D01*
X9915693Y-3730692D01*
X9735033Y-4001068D01*
X9671594Y-4319999D01*
X4884794Y-4319999D01*
X4918709Y-4269242D01*
X5010058Y-3810000D01*
X4918709Y-3350758D01*
X4658569Y-2961431D01*
X4269242Y-2701291D01*
X3925920Y-2633000D01*
X3694080Y-2633000D01*
X3350758Y-2701291D01*
X2961431Y-2961431D01*
X2701291Y-3350758D01*
X2609942Y-3810000D01*
X-2609942Y-3810000D01*
X-2701291Y-3350758D01*
X-2961431Y-2961431D01*
X-3350758Y-2701291D01*
X-3694080Y-2633000D01*
X-3925920Y-2633000D01*
X-4269242Y-2701291D01*
X-4658569Y-2961431D01*
X-4918709Y-3350758D01*
X-5010058Y-3810000D01*
X-17598000Y-3810000D01*
X-17598000Y-1626890D01*
X-16681476Y-1626890D01*
X-16511645Y-2036924D01*
X-16121358Y-2465183D01*
X-15596892Y-2711486D01*
X-15367000Y-2590819D01*
X-15367000Y-1397000D01*
X-15113000Y-1397000D01*
X-15113000Y-2590819D01*
X-14883108Y-2711486D01*
X-14358642Y-2465183D01*
X-13968355Y-2036924D01*
X-13798524Y-1626890D01*
X-13919845Y-1397000D01*
X-15113000Y-1397000D01*
X-15367000Y-1397000D01*
X-16560155Y-1397000D01*
X-16681476Y-1626890D01*
X-17598000Y-1626890D01*
X-17598000Y-1270000D01*
X-5010058Y-1270000D01*
X-4918709Y-1729242D01*
X-4658569Y-2118569D01*
X-4269242Y-2378709D01*
X-3925920Y-2447000D01*
X-3694080Y-2447000D01*
X-3350758Y-2378709D01*
X-2961431Y-2118569D01*
X-2701291Y-1729242D01*
X-2609942Y-1270000D01*
X2609942Y-1270000D01*
X2701291Y-1729242D01*
X2961431Y-2118569D01*
X3350758Y-2378709D01*
X3694080Y-2447000D01*
X3925920Y-2447000D01*
X4269242Y-2378709D01*
X4658569Y-2118569D01*
X4918709Y-1729242D01*
X5010058Y-1270000D01*
X4918709Y-810758D01*
X4658569Y-421431D01*
X4269242Y-161291D01*
X3925920Y-93000D01*
X3694080Y-93000D01*
X3350758Y-161291D01*
X2961431Y-421431D01*
X2701291Y-810758D01*
X2609942Y-1270000D01*
X-2609942Y-1270000D01*
X-2701291Y-810758D01*
X-2961431Y-421431D01*
X-3350758Y-161291D01*
X-3694080Y-93000D01*
X-3925920Y-93000D01*
X-4269242Y-161291D01*
X-4658569Y-421431D01*
X-4918709Y-810758D01*
X-5010058Y-1270000D01*
X-17598000Y-1270000D01*
X-17598000Y-913110D01*
X-16681476Y-913110D01*
X-16560155Y-1143000D01*
X-15367000Y-1143000D01*
X-15367000Y-1123000D01*
X-15113000Y-1123000D01*
X-15113000Y-1143000D01*
X-13919845Y-1143000D01*
X-13798524Y-913110D01*
X-13968355Y-503076D01*
X-14358642Y-74817D01*
X-14851844Y156804D01*
X-14573283Y272187D01*
X-14242187Y603283D01*
X-14153249Y818000D01*
X-6013518Y818000D01*
X-5969000Y809145D01*
X-5924482Y818000D01*
X-5792638Y844225D01*
X-5643126Y944126D01*
X-5617907Y981869D01*
X-4930671Y1669104D01*
X-5010058Y1270000D01*
X-4918709Y810758D01*
X-4658569Y421431D01*
X-4269242Y161291D01*
X-3925920Y93000D01*
X-3694080Y93000D01*
X-3350758Y161291D01*
X-2961431Y421431D01*
X-2701291Y810758D01*
X-2609942Y1270000D01*
X-2701291Y1729242D01*
X-2941005Y2088000D01*
X-2600224Y2088000D01*
X-1358029Y845804D01*
X-1251321Y588187D01*
X-1046813Y383679D01*
X-779609Y273000D01*
X-490391Y273000D01*
X-223187Y383679D01*
X-18679Y588187D01*
X92000Y855391D01*
X92000Y1144609D01*
X40062Y1270000D01*
X2609942Y1270000D01*
X2701291Y810758D01*
X2961431Y421431D01*
X3350758Y161291D01*
X3694080Y93000D01*
X3925920Y93000D01*
X4269242Y161291D01*
X4658569Y421431D01*
X4918709Y810758D01*
X5010058Y1270000D01*
X4918709Y1729242D01*
X4658569Y2118569D01*
X4269242Y2378709D01*
X4266829Y2379189D01*
X4594080Y2514741D01*
X4674353Y2766042D01*
X3810000Y3630395D01*
X2945647Y2766042D01*
X3025920Y2514741D01*
X3383154Y2385153D01*
X3350758Y2378709D01*
X2961431Y2118569D01*
X2701291Y1729242D01*
X2609942Y1270000D01*
X40062Y1270000D01*
X-18679Y1411813D01*
X-223187Y1616321D01*
X-490391Y1727000D01*
X-779609Y1727000D01*
X-907713Y1673938D01*
X-2061907Y2828131D01*
X-2087126Y2865874D01*
X-2236638Y2965775D01*
X-2368482Y2992000D01*
X-2413000Y3000855D01*
X-2457518Y2992000D01*
X-2626594Y2992000D01*
X-2626594Y4660000D01*
X-2649071Y4772999D01*
X2667393Y4772999D01*
X2766040Y4674352D01*
X2514741Y4594080D01*
X2313282Y4038721D01*
X2339685Y3448542D01*
X2514741Y3025920D01*
X2766042Y2945647D01*
X3630395Y3810000D01*
X3616253Y3824143D01*
X3795858Y4003748D01*
X3810000Y3989605D01*
X3824143Y4003748D01*
X4003748Y3824143D01*
X3989605Y3810000D01*
X4853958Y2945647D01*
X5105259Y3025920D01*
X5306718Y3581279D01*
X5280315Y4171458D01*
X5279676Y4173000D01*
X5381710Y4173000D01*
X8225101Y1329608D01*
X8283679Y1188187D01*
X8373000Y1098866D01*
X8373000Y1086217D01*
X8373001Y-998865D01*
X8283679Y-1088187D01*
X8173000Y-1355391D01*
X8173000Y-1644609D01*
X8283679Y-1911813D01*
X8488187Y-2116321D01*
X8755391Y-2227000D01*
X9044609Y-2227000D01*
X9311813Y-2116321D01*
X9516321Y-1911813D01*
X9627000Y-1644609D01*
X9627000Y-1355391D01*
X9516321Y-1088187D01*
X9427000Y-998866D01*
X9427000Y1098866D01*
X9516321Y1188187D01*
X9627000Y1455391D01*
X9627000Y1744609D01*
X9516321Y2011813D01*
X9311813Y2216321D01*
X9044609Y2327000D01*
X8755391Y2327000D01*
X8729157Y2316134D01*
X6725290Y4320001D01*
X9671594Y4320001D01*
X9671594Y4319999D01*
X9735033Y4001068D01*
X9915693Y3730692D01*
X10186069Y3550032D01*
X10505000Y3486593D01*
X11105000Y3486593D01*
X11423931Y3550032D01*
X11694307Y3730692D01*
X11874967Y4001068D01*
X11938406Y4319999D01*
X11938406Y4320001D01*
X13471594Y4320001D01*
X13471594Y4319999D01*
X13535033Y4001068D01*
X13715693Y3730692D01*
X13986069Y3550032D01*
X14305000Y3486593D01*
X14905000Y3486593D01*
X15223931Y3550032D01*
X15494307Y3730692D01*
X15674967Y4001068D01*
X15738406Y4319999D01*
X15738406Y4320001D01*
X15674967Y4638932D01*
X15494307Y4909308D01*
X15223931Y5089968D01*
X14905000Y5153407D01*
X14305000Y5153407D01*
X13986069Y5089968D01*
X13715693Y4909308D01*
X13535033Y4638932D01*
X13471594Y4320001D01*
X11938406Y4320001D01*
X11874967Y4638932D01*
X11694307Y4909308D01*
X11423931Y5089968D01*
X11105000Y5153407D01*
X10505000Y5153407D01*
X10186069Y5089968D01*
X9915693Y4909308D01*
X9735033Y4638932D01*
X9671594Y4320001D01*
X6725290Y4320001D01*
X6127000Y4918290D01*
X6127000Y5044609D01*
X6016321Y5311813D01*
X5811813Y5516321D01*
X5544609Y5627000D01*
X5418290Y5627000D01*
X5409346Y5635944D01*
X5379946Y5679944D01*
X5205626Y5796422D01*
X5051904Y5826999D01*
X5051899Y5826999D01*
X5000001Y5837322D01*
X4948103Y5826999D01*
X-5248102Y5826999D01*
X-5300001Y5837322D01*
X-5351900Y5826999D01*
X-5351904Y5826999D01*
X-5473614Y5802790D01*
X-5505627Y5796422D01*
X-5635946Y5709345D01*
X-5635949Y5709342D01*
X-5679946Y5679944D01*
X-5709344Y5635946D01*
X-7008290Y4337000D01*
X-8976594Y4337000D01*
X-8976594Y4660000D01*
X-9001973Y4787589D01*
X-9074246Y4895754D01*
X-9182411Y4968027D01*
X-9310000Y4993406D01*
X-11010000Y4993406D01*
X-11137589Y4968027D01*
X-11245754Y4895754D01*
X-11318027Y4787589D01*
X-11343406Y4660000D01*
X-11343406Y2960000D01*
X-11318027Y2832411D01*
X-11245754Y2724246D01*
X-11137589Y2651973D01*
X-11010000Y2626594D01*
X-9310000Y2626594D01*
X-9182411Y2651973D01*
X-9074246Y2724246D01*
X-9001973Y2832411D01*
X-8976594Y2960000D01*
X-8976594Y3283000D01*
X-6841898Y3283000D01*
X-6790000Y3272677D01*
X-6738102Y3283000D01*
X-6738097Y3283000D01*
X-6584375Y3313577D01*
X-6410055Y3430055D01*
X-6380655Y3474055D01*
X-5081710Y4772999D01*
X-4970929Y4772999D01*
X-4993406Y4660000D01*
X-4993406Y2960000D01*
X-4980571Y2895476D01*
X-5024874Y2865874D01*
X-5050091Y2828133D01*
X-6156224Y1722000D01*
X-14153249Y1722000D01*
X-14242187Y1936717D01*
X-14573283Y2267813D01*
X-15005880Y2447000D01*
X-15474120Y2447000D01*
X-15906717Y2267813D01*
X-16237813Y1936717D01*
X-16417000Y1504120D01*
X-16417000Y1035880D01*
X-16237813Y603283D01*
X-15906717Y272187D01*
X-15628156Y156804D01*
X-16121358Y-74817D01*
X-16511645Y-503076D01*
X-16681476Y-913110D01*
X-17598000Y-913110D01*
X-17598000Y7333576D01*
X-8677000Y7333576D01*
X-8677000Y6666424D01*
X-8421692Y6050056D01*
X-7949944Y5578308D01*
X-7333576Y5323000D01*
X-6666424Y5323000D01*
X-6050056Y5578308D01*
X-5578308Y6050056D01*
X-5323000Y6666424D01*
X-5323000Y7333576D01*
X-5578308Y7949944D01*
X-6050056Y8421692D01*
X-6666424Y8677000D01*
X-7333576Y8677000D01*
X-7949944Y8421692D01*
X-8421692Y7949944D01*
X-8677000Y7333576D01*
X-17598000Y7333576D01*
X-17598000Y7833487D01*
X-15833486Y9598000D01*
X14833487Y9598000D01*
X16598000Y7833486D01*
X16598000Y7833486D01*
G37*
X16598000Y7833486D02*
X16598001Y-7833485D01*
X14833487Y-9598000D01*
X-15833486Y-9598000D01*
X-17598000Y-7833487D01*
X-17598000Y-6666424D01*
X5323000Y-6666424D01*
X5323000Y-7333576D01*
X5578308Y-7949944D01*
X6050056Y-8421692D01*
X6666424Y-8677000D01*
X7333576Y-8677000D01*
X7949944Y-8421692D01*
X8421692Y-7949944D01*
X8677000Y-7333576D01*
X8677000Y-6666424D01*
X8421692Y-6050056D01*
X7949944Y-5578308D01*
X7333576Y-5323000D01*
X6666424Y-5323000D01*
X6050056Y-5578308D01*
X5578308Y-6050056D01*
X5323000Y-6666424D01*
X-17598000Y-6666424D01*
X-17598000Y-3810000D01*
X-5010058Y-3810000D01*
X-4918709Y-4269242D01*
X-4658569Y-4658569D01*
X-4269242Y-4918709D01*
X-3925920Y-4987000D01*
X-3694080Y-4987000D01*
X-3350758Y-4918709D01*
X-2961431Y-4658569D01*
X-2701291Y-4269242D01*
X-2609942Y-3810000D01*
X2609942Y-3810000D01*
X2701291Y-4269242D01*
X2961431Y-4658569D01*
X3350758Y-4918709D01*
X3694080Y-4987000D01*
X3925920Y-4987000D01*
X4269242Y-4918709D01*
X4658569Y-4658569D01*
X4884794Y-4319999D01*
X9671594Y-4319999D01*
X9671594Y-4320001D01*
X9735033Y-4638932D01*
X9915693Y-4909308D01*
X10186069Y-5089968D01*
X10505000Y-5153407D01*
X11105000Y-5153407D01*
X11423931Y-5089968D01*
X11694307Y-4909308D01*
X11874967Y-4638932D01*
X11938406Y-4320001D01*
X11938406Y-4319999D01*
X13471594Y-4319999D01*
X13471594Y-4320001D01*
X13535033Y-4638932D01*
X13715693Y-4909308D01*
X13986069Y-5089968D01*
X14305000Y-5153407D01*
X14905000Y-5153407D01*
X15223931Y-5089968D01*
X15494307Y-4909308D01*
X15674967Y-4638932D01*
X15738406Y-4320001D01*
X15738406Y-4319999D01*
X15674967Y-4001068D01*
X15494307Y-3730692D01*
X15223931Y-3550032D01*
X14905000Y-3486593D01*
X14305000Y-3486593D01*
X13986069Y-3550032D01*
X13715693Y-3730692D01*
X13535033Y-4001068D01*
X13471594Y-4319999D01*
X11938406Y-4319999D01*
X11874967Y-4001068D01*
X11694307Y-3730692D01*
X11423931Y-3550032D01*
X11105000Y-3486593D01*
X10505000Y-3486593D01*
X10186069Y-3550032D01*
X9915693Y-3730692D01*
X9735033Y-4001068D01*
X9671594Y-4319999D01*
X4884794Y-4319999D01*
X4918709Y-4269242D01*
X5010058Y-3810000D01*
X4918709Y-3350758D01*
X4658569Y-2961431D01*
X4269242Y-2701291D01*
X3925920Y-2633000D01*
X3694080Y-2633000D01*
X3350758Y-2701291D01*
X2961431Y-2961431D01*
X2701291Y-3350758D01*
X2609942Y-3810000D01*
X-2609942Y-3810000D01*
X-2701291Y-3350758D01*
X-2961431Y-2961431D01*
X-3350758Y-2701291D01*
X-3694080Y-2633000D01*
X-3925920Y-2633000D01*
X-4269242Y-2701291D01*
X-4658569Y-2961431D01*
X-4918709Y-3350758D01*
X-5010058Y-3810000D01*
X-17598000Y-3810000D01*
X-17598000Y-1626890D01*
X-16681476Y-1626890D01*
X-16511645Y-2036924D01*
X-16121358Y-2465183D01*
X-15596892Y-2711486D01*
X-15367000Y-2590819D01*
X-15367000Y-1397000D01*
X-15113000Y-1397000D01*
X-15113000Y-2590819D01*
X-14883108Y-2711486D01*
X-14358642Y-2465183D01*
X-13968355Y-2036924D01*
X-13798524Y-1626890D01*
X-13919845Y-1397000D01*
X-15113000Y-1397000D01*
X-15367000Y-1397000D01*
X-16560155Y-1397000D01*
X-16681476Y-1626890D01*
X-17598000Y-1626890D01*
X-17598000Y-1270000D01*
X-5010058Y-1270000D01*
X-4918709Y-1729242D01*
X-4658569Y-2118569D01*
X-4269242Y-2378709D01*
X-3925920Y-2447000D01*
X-3694080Y-2447000D01*
X-3350758Y-2378709D01*
X-2961431Y-2118569D01*
X-2701291Y-1729242D01*
X-2609942Y-1270000D01*
X2609942Y-1270000D01*
X2701291Y-1729242D01*
X2961431Y-2118569D01*
X3350758Y-2378709D01*
X3694080Y-2447000D01*
X3925920Y-2447000D01*
X4269242Y-2378709D01*
X4658569Y-2118569D01*
X4918709Y-1729242D01*
X5010058Y-1270000D01*
X4918709Y-810758D01*
X4658569Y-421431D01*
X4269242Y-161291D01*
X3925920Y-93000D01*
X3694080Y-93000D01*
X3350758Y-161291D01*
X2961431Y-421431D01*
X2701291Y-810758D01*
X2609942Y-1270000D01*
X-2609942Y-1270000D01*
X-2701291Y-810758D01*
X-2961431Y-421431D01*
X-3350758Y-161291D01*
X-3694080Y-93000D01*
X-3925920Y-93000D01*
X-4269242Y-161291D01*
X-4658569Y-421431D01*
X-4918709Y-810758D01*
X-5010058Y-1270000D01*
X-17598000Y-1270000D01*
X-17598000Y-913110D01*
X-16681476Y-913110D01*
X-16560155Y-1143000D01*
X-15367000Y-1143000D01*
X-15367000Y-1123000D01*
X-15113000Y-1123000D01*
X-15113000Y-1143000D01*
X-13919845Y-1143000D01*
X-13798524Y-913110D01*
X-13968355Y-503076D01*
X-14358642Y-74817D01*
X-14851844Y156804D01*
X-14573283Y272187D01*
X-14242187Y603283D01*
X-14153249Y818000D01*
X-6013518Y818000D01*
X-5969000Y809145D01*
X-5924482Y818000D01*
X-5792638Y844225D01*
X-5643126Y944126D01*
X-5617907Y981869D01*
X-4930671Y1669104D01*
X-5010058Y1270000D01*
X-4918709Y810758D01*
X-4658569Y421431D01*
X-4269242Y161291D01*
X-3925920Y93000D01*
X-3694080Y93000D01*
X-3350758Y161291D01*
X-2961431Y421431D01*
X-2701291Y810758D01*
X-2609942Y1270000D01*
X-2701291Y1729242D01*
X-2941005Y2088000D01*
X-2600224Y2088000D01*
X-1358029Y845804D01*
X-1251321Y588187D01*
X-1046813Y383679D01*
X-779609Y273000D01*
X-490391Y273000D01*
X-223187Y383679D01*
X-18679Y588187D01*
X92000Y855391D01*
X92000Y1144609D01*
X40062Y1270000D01*
X2609942Y1270000D01*
X2701291Y810758D01*
X2961431Y421431D01*
X3350758Y161291D01*
X3694080Y93000D01*
X3925920Y93000D01*
X4269242Y161291D01*
X4658569Y421431D01*
X4918709Y810758D01*
X5010058Y1270000D01*
X4918709Y1729242D01*
X4658569Y2118569D01*
X4269242Y2378709D01*
X4266829Y2379189D01*
X4594080Y2514741D01*
X4674353Y2766042D01*
X3810000Y3630395D01*
X2945647Y2766042D01*
X3025920Y2514741D01*
X3383154Y2385153D01*
X3350758Y2378709D01*
X2961431Y2118569D01*
X2701291Y1729242D01*
X2609942Y1270000D01*
X40062Y1270000D01*
X-18679Y1411813D01*
X-223187Y1616321D01*
X-490391Y1727000D01*
X-779609Y1727000D01*
X-907713Y1673938D01*
X-2061907Y2828131D01*
X-2087126Y2865874D01*
X-2236638Y2965775D01*
X-2368482Y2992000D01*
X-2413000Y3000855D01*
X-2457518Y2992000D01*
X-2626594Y2992000D01*
X-2626594Y4660000D01*
X-2649071Y4772999D01*
X2667393Y4772999D01*
X2766040Y4674352D01*
X2514741Y4594080D01*
X2313282Y4038721D01*
X2339685Y3448542D01*
X2514741Y3025920D01*
X2766042Y2945647D01*
X3630395Y3810000D01*
X3616253Y3824143D01*
X3795858Y4003748D01*
X3810000Y3989605D01*
X3824143Y4003748D01*
X4003748Y3824143D01*
X3989605Y3810000D01*
X4853958Y2945647D01*
X5105259Y3025920D01*
X5306718Y3581279D01*
X5280315Y4171458D01*
X5279676Y4173000D01*
X5381710Y4173000D01*
X8225101Y1329608D01*
X8283679Y1188187D01*
X8373000Y1098866D01*
X8373000Y1086217D01*
X8373001Y-998865D01*
X8283679Y-1088187D01*
X8173000Y-1355391D01*
X8173000Y-1644609D01*
X8283679Y-1911813D01*
X8488187Y-2116321D01*
X8755391Y-2227000D01*
X9044609Y-2227000D01*
X9311813Y-2116321D01*
X9516321Y-1911813D01*
X9627000Y-1644609D01*
X9627000Y-1355391D01*
X9516321Y-1088187D01*
X9427000Y-998866D01*
X9427000Y1098866D01*
X9516321Y1188187D01*
X9627000Y1455391D01*
X9627000Y1744609D01*
X9516321Y2011813D01*
X9311813Y2216321D01*
X9044609Y2327000D01*
X8755391Y2327000D01*
X8729157Y2316134D01*
X6725290Y4320001D01*
X9671594Y4320001D01*
X9671594Y4319999D01*
X9735033Y4001068D01*
X9915693Y3730692D01*
X10186069Y3550032D01*
X10505000Y3486593D01*
X11105000Y3486593D01*
X11423931Y3550032D01*
X11694307Y3730692D01*
X11874967Y4001068D01*
X11938406Y4319999D01*
X11938406Y4320001D01*
X13471594Y4320001D01*
X13471594Y4319999D01*
X13535033Y4001068D01*
X13715693Y3730692D01*
X13986069Y3550032D01*
X14305000Y3486593D01*
X14905000Y3486593D01*
X15223931Y3550032D01*
X15494307Y3730692D01*
X15674967Y4001068D01*
X15738406Y4319999D01*
X15738406Y4320001D01*
X15674967Y4638932D01*
X15494307Y4909308D01*
X15223931Y5089968D01*
X14905000Y5153407D01*
X14305000Y5153407D01*
X13986069Y5089968D01*
X13715693Y4909308D01*
X13535033Y4638932D01*
X13471594Y4320001D01*
X11938406Y4320001D01*
X11874967Y4638932D01*
X11694307Y4909308D01*
X11423931Y5089968D01*
X11105000Y5153407D01*
X10505000Y5153407D01*
X10186069Y5089968D01*
X9915693Y4909308D01*
X9735033Y4638932D01*
X9671594Y4320001D01*
X6725290Y4320001D01*
X6127000Y4918290D01*
X6127000Y5044609D01*
X6016321Y5311813D01*
X5811813Y5516321D01*
X5544609Y5627000D01*
X5418290Y5627000D01*
X5409346Y5635944D01*
X5379946Y5679944D01*
X5205626Y5796422D01*
X5051904Y5826999D01*
X5051899Y5826999D01*
X5000001Y5837322D01*
X4948103Y5826999D01*
X-5248102Y5826999D01*
X-5300001Y5837322D01*
X-5351900Y5826999D01*
X-5351904Y5826999D01*
X-5473614Y5802790D01*
X-5505627Y5796422D01*
X-5635946Y5709345D01*
X-5635949Y5709342D01*
X-5679946Y5679944D01*
X-5709344Y5635946D01*
X-7008290Y4337000D01*
X-8976594Y4337000D01*
X-8976594Y4660000D01*
X-9001973Y4787589D01*
X-9074246Y4895754D01*
X-9182411Y4968027D01*
X-9310000Y4993406D01*
X-11010000Y4993406D01*
X-11137589Y4968027D01*
X-11245754Y4895754D01*
X-11318027Y4787589D01*
X-11343406Y4660000D01*
X-11343406Y2960000D01*
X-11318027Y2832411D01*
X-11245754Y2724246D01*
X-11137589Y2651973D01*
X-11010000Y2626594D01*
X-9310000Y2626594D01*
X-9182411Y2651973D01*
X-9074246Y2724246D01*
X-9001973Y2832411D01*
X-8976594Y2960000D01*
X-8976594Y3283000D01*
X-6841898Y3283000D01*
X-6790000Y3272677D01*
X-6738102Y3283000D01*
X-6738097Y3283000D01*
X-6584375Y3313577D01*
X-6410055Y3430055D01*
X-6380655Y3474055D01*
X-5081710Y4772999D01*
X-4970929Y4772999D01*
X-4993406Y4660000D01*
X-4993406Y2960000D01*
X-4980571Y2895476D01*
X-5024874Y2865874D01*
X-5050091Y2828133D01*
X-6156224Y1722000D01*
X-14153249Y1722000D01*
X-14242187Y1936717D01*
X-14573283Y2267813D01*
X-15005880Y2447000D01*
X-15474120Y2447000D01*
X-15906717Y2267813D01*
X-16237813Y1936717D01*
X-16417000Y1504120D01*
X-16417000Y1035880D01*
X-16237813Y603283D01*
X-15906717Y272187D01*
X-15628156Y156804D01*
X-16121358Y-74817D01*
X-16511645Y-503076D01*
X-16681476Y-913110D01*
X-17598000Y-913110D01*
X-17598000Y7333576D01*
X-8677000Y7333576D01*
X-8677000Y6666424D01*
X-8421692Y6050056D01*
X-7949944Y5578308D01*
X-7333576Y5323000D01*
X-6666424Y5323000D01*
X-6050056Y5578308D01*
X-5578308Y6050056D01*
X-5323000Y6666424D01*
X-5323000Y7333576D01*
X-5578308Y7949944D01*
X-6050056Y8421692D01*
X-6666424Y8677000D01*
X-7333576Y8677000D01*
X-7949944Y8421692D01*
X-8421692Y7949944D01*
X-8677000Y7333576D01*
X-17598000Y7333576D01*
X-17598000Y7833487D01*
X-15833486Y9598000D01*
X14833487Y9598000D01*
X16598000Y7833486D01*
G04 #@! TD*
M02*
