G04 #@! TF.GenerationSoftware,KiCad,Pcbnew,5.0.2+dfsg1-1*
G04 #@! TF.CreationDate,2021-01-04T01:24:12+01:00*
G04 #@! TF.ProjectId,tester,74657374-6572-42e6-9b69-6361645f7063,rev?*
G04 #@! TF.SameCoordinates,Original*
G04 #@! TF.FileFunction,Legend,Bot*
G04 #@! TF.FilePolarity,Positive*
%FSLAX46Y46*%
G04 Gerber Fmt 4.6, Leading zero omitted, Abs format (unit mm)*
G04 Created by KiCad (PCBNEW 5.0.2+dfsg1-1) date Mon 04 Jan 2021 01:24:12 AM CET*
%MOMM*%
%LPD*%
G01*
G04 APERTURE LIST*
%ADD10C,0.300000*%
G04 APERTURE END LIST*
D10*
X9099857Y-1948571D02*
X9099857Y-448571D01*
X8528428Y-448571D01*
X8385571Y-520000D01*
X8314142Y-591428D01*
X8242714Y-734285D01*
X8242714Y-948571D01*
X8314142Y-1091428D01*
X8385571Y-1162857D01*
X8528428Y-1234285D01*
X9099857Y-1234285D01*
X7671285Y-1520000D02*
X6957000Y-1520000D01*
X7814142Y-1948571D02*
X7314142Y-448571D01*
X6814142Y-1948571D01*
X5671285Y-948571D02*
X5671285Y-1948571D01*
X6028428Y-377142D02*
X6385571Y-1448571D01*
X5457000Y-1448571D01*
X8314142Y4560000D02*
X8457000Y4631428D01*
X8671285Y4631428D01*
X8885571Y4560000D01*
X9028428Y4417142D01*
X9099857Y4274285D01*
X9171285Y3988571D01*
X9171285Y3774285D01*
X9099857Y3488571D01*
X9028428Y3345714D01*
X8885571Y3202857D01*
X8671285Y3131428D01*
X8528428Y3131428D01*
X8314142Y3202857D01*
X8242714Y3274285D01*
X8242714Y3774285D01*
X8528428Y3774285D01*
X7599857Y3131428D02*
X7599857Y4631428D01*
X6742714Y3131428D01*
X6742714Y4631428D01*
X6028428Y3131428D02*
X6028428Y4631428D01*
X5671285Y4631428D01*
X5457000Y4560000D01*
X5314142Y4417142D01*
X5242714Y4274285D01*
X5171285Y3988571D01*
X5171285Y3774285D01*
X5242714Y3488571D01*
X5314142Y3345714D01*
X5457000Y3202857D01*
X5671285Y3131428D01*
X6028428Y3131428D01*
X9099857Y591428D02*
X9099857Y2091428D01*
X8528428Y2091428D01*
X8385571Y2020000D01*
X8314142Y1948571D01*
X8242714Y1805714D01*
X8242714Y1591428D01*
X8314142Y1448571D01*
X8385571Y1377142D01*
X8528428Y1305714D01*
X9099857Y1305714D01*
X7671285Y1020000D02*
X6957000Y1020000D01*
X7814142Y591428D02*
X7314142Y2091428D01*
X6814142Y591428D01*
X6028428Y2091428D02*
X5885571Y2091428D01*
X5742714Y2020000D01*
X5671285Y1948571D01*
X5599857Y1805714D01*
X5528428Y1520000D01*
X5528428Y1162857D01*
X5599857Y877142D01*
X5671285Y734285D01*
X5742714Y662857D01*
X5885571Y591428D01*
X6028428Y591428D01*
X6171285Y662857D01*
X6242714Y734285D01*
X6314142Y877142D01*
X6385571Y1162857D01*
X6385571Y1520000D01*
X6314142Y1805714D01*
X6242714Y1948571D01*
X6171285Y2020000D01*
X6028428Y2091428D01*
X9099857Y-4488571D02*
X9099857Y-2988571D01*
X8528428Y-2988571D01*
X8385571Y-3060000D01*
X8314142Y-3131428D01*
X8242714Y-3274285D01*
X8242714Y-3488571D01*
X8314142Y-3631428D01*
X8385571Y-3702857D01*
X8528428Y-3774285D01*
X9099857Y-3774285D01*
X7671285Y-4060000D02*
X6957000Y-4060000D01*
X7814142Y-4488571D02*
X7314142Y-2988571D01*
X6814142Y-4488571D01*
X6457000Y-2988571D02*
X5528428Y-2988571D01*
X6028428Y-3560000D01*
X5814142Y-3560000D01*
X5671285Y-3631428D01*
X5599857Y-3702857D01*
X5528428Y-3845714D01*
X5528428Y-4202857D01*
X5599857Y-4345714D01*
X5671285Y-4417142D01*
X5814142Y-4488571D01*
X6242714Y-4488571D01*
X6385571Y-4417142D01*
X6457000Y-4345714D01*
X-409285Y6917428D02*
X-1337857Y6917428D01*
X-837857Y6346000D01*
X-1052142Y6346000D01*
X-1195000Y6274571D01*
X-1266428Y6203142D01*
X-1337857Y6060285D01*
X-1337857Y5703142D01*
X-1266428Y5560285D01*
X-1195000Y5488857D01*
X-1052142Y5417428D01*
X-623571Y5417428D01*
X-480714Y5488857D01*
X-409285Y5560285D01*
X-1837857Y6417428D02*
X-2194999Y5417428D01*
X-2552142Y6417428D01*
X-2980714Y6917428D02*
X-3909285Y6917428D01*
X-3409285Y6346000D01*
X-3623571Y6346000D01*
X-3766428Y6274571D01*
X-3837857Y6203142D01*
X-3909285Y6060285D01*
X-3909285Y5703142D01*
X-3837857Y5560285D01*
X-3766428Y5488857D01*
X-3623571Y5417428D01*
X-3194999Y5417428D01*
X-3052142Y5488857D01*
X-2980714Y5560285D01*
X-5632142Y591428D02*
X-5632142Y2091428D01*
X-6203571Y2091428D01*
X-6346428Y2020000D01*
X-6417857Y1948571D01*
X-6489285Y1805714D01*
X-6489285Y1591428D01*
X-6417857Y1448571D01*
X-6346428Y1377142D01*
X-6203571Y1305714D01*
X-5632142Y1305714D01*
X-7060714Y1020000D02*
X-7774999Y1020000D01*
X-6917857Y591428D02*
X-7417857Y2091428D01*
X-7917857Y591428D01*
X-8274999Y2091428D02*
X-9275000Y2091428D01*
X-8632142Y591428D01*
X-5632142Y-1948571D02*
X-5632142Y-448571D01*
X-6203571Y-448571D01*
X-6346428Y-520000D01*
X-6417857Y-591428D01*
X-6489285Y-734285D01*
X-6489285Y-948571D01*
X-6417857Y-1091428D01*
X-6346428Y-1162857D01*
X-6203571Y-1234285D01*
X-5632142Y-1234285D01*
X-7060714Y-1520000D02*
X-7774999Y-1520000D01*
X-6917857Y-1948571D02*
X-7417857Y-448571D01*
X-7917857Y-1948571D01*
X-9060714Y-448571D02*
X-8774999Y-448571D01*
X-8632142Y-520000D01*
X-8560714Y-591428D01*
X-8417857Y-805714D01*
X-8346428Y-1091428D01*
X-8346428Y-1662857D01*
X-8417857Y-1805714D01*
X-8489285Y-1877142D01*
X-8632142Y-1948571D01*
X-8917857Y-1948571D01*
X-9060714Y-1877142D01*
X-9132142Y-1805714D01*
X-9203571Y-1662857D01*
X-9203571Y-1305714D01*
X-9132142Y-1162857D01*
X-9060714Y-1091428D01*
X-8917857Y-1020000D01*
X-8632142Y-1020000D01*
X-8489285Y-1091428D01*
X-8417857Y-1162857D01*
X-8346428Y-1305714D01*
X-5632142Y-4488571D02*
X-5632142Y-2988571D01*
X-6203571Y-2988571D01*
X-6346428Y-3060000D01*
X-6417857Y-3131428D01*
X-6489285Y-3274285D01*
X-6489285Y-3488571D01*
X-6417857Y-3631428D01*
X-6346428Y-3702857D01*
X-6203571Y-3774285D01*
X-5632142Y-3774285D01*
X-7060714Y-4060000D02*
X-7774999Y-4060000D01*
X-6917857Y-4488571D02*
X-7417857Y-2988571D01*
X-7917857Y-4488571D01*
X-9132142Y-2988571D02*
X-8417857Y-2988571D01*
X-8346428Y-3702857D01*
X-8417857Y-3631428D01*
X-8560714Y-3560000D01*
X-8917857Y-3560000D01*
X-9060714Y-3631428D01*
X-9132142Y-3702857D01*
X-9203571Y-3845714D01*
X-9203571Y-4202857D01*
X-9132142Y-4345714D01*
X-9060714Y-4417142D01*
X-8917857Y-4488571D01*
X-8560714Y-4488571D01*
X-8417857Y-4417142D01*
X-8346428Y-4345714D01*
M02*
