M48
METRIC,TZ
T1C0.400
T2C0.600
T3C1.000
T4C2.700
%
G90
G05
T1
X-0.635Y1.
X5.4Y4.9
X8.9Y1.6
X8.9Y-1.5
T3
X-3.81Y3.81
X-3.81Y1.27
X-3.81Y-1.27
X-3.81Y-3.81
X-15.24Y1.27
X-15.24Y-1.27
X-10.16Y3.81
X3.81Y3.81
X3.81Y1.27
X3.81Y-1.27
X3.81Y-3.81
T4
X7.Y-7.
X-7.Y7.
T2
X10.505Y4.32G85X11.105Y4.32
G05
X10.505Y-4.32G85X11.105Y-4.32
G05
X14.305Y4.32G85X14.905Y4.32
G05
X14.305Y-4.32G85X14.905Y-4.32
G05
T0
M30
